<svg xmlns="http://www.w3.org/2000/svg" width="24" height="24" viewBox="0 0 320 320">
  <g>
    <path fill="#18853e" d="M221.5,162.5C226.511,162.334 231.511,162.501 236.5,163C243.456,166.145 250.123,169.811 256.5,174C262.642,176.218 268.642,175.884 274.5,173C289.656,164.716 292.49,168.216 283,183.5C278.709,189.915 274.542,196.415 270.5,203C268.13,204.036 265.63,204.536 263,204.5C253.51,203.827 244.01,203.327 234.5,203C228.047,192.6 222.214,181.766 217,170.5C215.348,165.781 216.848,163.115 221.5,162.5Z"/>
  </g>
  <g>
    <path fill="#0d823a" d="M205.5,243.5C206.906,243.027 207.573,242.027 207.5,240.5C212.283,231.101 217.95,222.268 224.5,214C226.087,213.138 227.754,212.471 229.5,212C243.831,211.938 258.165,212.271 272.5,213C275.446,213.806 278.112,215.139 280.5,217C294.342,234.522 306.175,253.355 316,273.5C324.268,293.513 320.101,310.347 303.5,324C299.729,326.219 295.729,327.885 291.5,329C268.605,334.827 245.605,335.494 222.5,331C212.385,328.275 203.051,323.941 194.5,318C187.187,311.749 183.52,303.749 183.5,294C184.763,274.328 192.096,257.494 205.5,243.5Z"/>
  </g>
  <g>
    <path fill="#f8db58" d="M248.5,238.5C250.833,238.5 253.167,238.5 255.5,238.5C255.215,240.288 255.548,241.955 256.5,243.5C265.028,246.02 269.361,251.687 269.5,260.5C266.167,260.5 262.833,260.5 259.5,260.5C259.716,258.319 258.883,256.653 257,255.5C256.501,260.489 256.334,265.489 256.5,270.5C264.637,272.647 268.637,277.981 268.5,286.5C268.389,295.116 264.222,300.782 256,303.5C255.506,305.134 255.34,306.801 255.5,308.5C253.167,308.5 250.833,308.5 248.5,308.5C248.785,306.712 248.452,305.045 247.5,303.5C239.541,300.553 235.541,294.886 235.5,286.5C238.86,286.384 242.193,286.051 245.5,285.5C245.128,288.022 245.961,290.022 248,291.5C248.499,286.511 248.666,281.511 248.5,276.5C240.562,274.218 236.229,268.884 235.5,260.5C236.199,252.141 240.532,246.807 248.5,244.5C248.5,242.5 248.5,240.5 248.5,238.5Z"/>
  </g>
  <g>
    <path fill="#86c19c" d="M207.5,240.5C207.573,242.027 206.906,243.027 205.5,243.5C205.427,241.973 206.094,240.973 207.5,240.5Z" opacity="0.624"/>
  </g>
  <g>
    <path fill="#1a8538" d="M247.5,254.5C248.648,258.981 248.815,263.648 248,268.5C243.517,263.977 243.351,259.311 247.5,254.5Z"/>
  </g>
  <g>
    <path fill="#8db449" d="M257.5,279.5C256.167,283.5 256.167,287.5 257.5,291.5C257.44,292.043 257.107,292.376 256.5,292.5C255.167,287.833 255.167,283.167 256.5,278.5C257.107,278.624 257.44,278.957 257.5,279.5Z"/>
  </g>
  <g>
    <path fill="#138338" d="M257.5,279.5C259.533,280.898 260.533,282.898 260.5,285.5C260.533,288.102 259.533,290.102 257.5,291.5C256.167,287.5 256.167,283.5 257.5,279.5Z"/>
  </g>
</svg>
